<mxfile host="app.diagrams.net" agent="Mozilla/5.0 (Windows NT 10.0; Win64; x64) AppleWebKit/537.36 (KHTML, like Gecko) Chrome/141.0.0.0 Safari/537.36 Edg/141.0.0.0" version="28.2.7">
  <diagram name="Page-1" id="uM2Wd0DcPulCl_nSy0dz">
    <mxGraphModel dx="1297" dy="843" grid="1" gridSize="10" guides="1" tooltips="1" connect="1" arrows="1" fold="1" page="1" pageScale="1" pageWidth="1100" pageHeight="850" math="0" shadow="0">
      <root>
        <mxCell id="0" />
        <mxCell id="1" parent="0" />
        <mxCell id="HFiZ4JCNKRLf1A1lZL1j-2" value="&lt;b&gt;&lt;font style=&quot;font-size: 13px;&quot;&gt;BaaS Partner&amp;nbsp;&lt;/font&gt;&lt;/b&gt;&lt;div&gt;&lt;b&gt;&lt;font style=&quot;font-size: 13px;&quot;&gt;App&lt;/font&gt;&lt;/b&gt;&lt;/div&gt;" style="rounded=1;whiteSpace=wrap;html=1;" parent="1" vertex="1">
          <mxGeometry x="70" y="129" width="120" height="250" as="geometry" />
        </mxCell>
        <mxCell id="HFiZ4JCNKRLf1A1lZL1j-10" style="edgeStyle=orthogonalEdgeStyle;rounded=0;orthogonalLoop=1;jettySize=auto;html=1;" parent="1" source="HFiZ4JCNKRLf1A1lZL1j-3" target="HFiZ4JCNKRLf1A1lZL1j-4" edge="1">
          <mxGeometry relative="1" as="geometry">
            <Array as="points">
              <mxPoint x="670" y="222" />
              <mxPoint x="670" y="222" />
            </Array>
          </mxGeometry>
        </mxCell>
        <mxCell id="HFiZ4JCNKRLf1A1lZL1j-11" value="&lt;font style=&quot;font-size: 12px;&quot;&gt;&amp;nbsp;(2) OAuth Token&lt;/font&gt;" style="edgeLabel;html=1;align=center;verticalAlign=middle;resizable=0;points=[];" parent="HFiZ4JCNKRLf1A1lZL1j-10" vertex="1" connectable="0">
          <mxGeometry x="0.025" relative="1" as="geometry">
            <mxPoint as="offset" />
          </mxGeometry>
        </mxCell>
        <mxCell id="HFiZ4JCNKRLf1A1lZL1j-3" value="&lt;b&gt;&lt;font style=&quot;font-size: 13px;&quot;&gt;Ruya&lt;/font&gt;&lt;/b&gt;&lt;div&gt;&lt;b&gt;&lt;br&gt;&lt;/b&gt;&lt;/div&gt;&lt;div&gt;&lt;b&gt;BaaS&amp;nbsp;&lt;/b&gt;&lt;div&gt;&lt;b&gt;API Gateway&lt;/b&gt;&lt;/div&gt;&lt;/div&gt;" style="rounded=1;whiteSpace=wrap;html=1;" parent="1" vertex="1">
          <mxGeometry x="390" y="129" width="120" height="260" as="geometry" />
        </mxCell>
        <mxCell id="HFiZ4JCNKRLf1A1lZL1j-4" value="&lt;b&gt;UAE PASS&lt;/b&gt;&lt;div&gt;&lt;br&gt;&lt;/div&gt;&lt;div&gt;&lt;br&gt;&lt;/div&gt;&lt;div&gt;&lt;b&gt;(API Gateway&lt;/b&gt;&lt;/div&gt;&lt;div&gt;&lt;b&gt;Digital Vault)&lt;/b&gt;&lt;/div&gt;" style="rounded=1;whiteSpace=wrap;html=1;" parent="1" vertex="1">
          <mxGeometry x="680" y="129" width="120" height="260" as="geometry" />
        </mxCell>
        <mxCell id="HFiZ4JCNKRLf1A1lZL1j-12" value="" style="endArrow=classic;html=1;rounded=0;exitX=0.997;exitY=0.66;exitDx=0;exitDy=0;exitPerimeter=0;" parent="1" source="HFiZ4JCNKRLf1A1lZL1j-3" edge="1">
          <mxGeometry width="50" height="50" relative="1" as="geometry">
            <mxPoint x="540" y="292" as="sourcePoint" />
            <mxPoint x="680" y="299" as="targetPoint" />
          </mxGeometry>
        </mxCell>
        <mxCell id="HFiZ4JCNKRLf1A1lZL1j-13" value="&lt;font style=&quot;font-size: 12px;&quot;&gt;&amp;nbsp;(3) Fetch Documents&lt;/font&gt;" style="edgeLabel;html=1;align=center;verticalAlign=middle;resizable=0;points=[];" parent="HFiZ4JCNKRLf1A1lZL1j-12" vertex="1" connectable="0">
          <mxGeometry x="-0.1526" relative="1" as="geometry">
            <mxPoint as="offset" />
          </mxGeometry>
        </mxCell>
        <mxCell id="HFiZ4JCNKRLf1A1lZL1j-15" value="" style="endArrow=classic;html=1;rounded=0;entryX=-0.017;entryY=0.441;entryDx=0;entryDy=0;entryPerimeter=0;exitX=0.99;exitY=0.459;exitDx=0;exitDy=0;exitPerimeter=0;" parent="1" source="HFiZ4JCNKRLf1A1lZL1j-2" target="HFiZ4JCNKRLf1A1lZL1j-3" edge="1">
          <mxGeometry width="50" height="50" relative="1" as="geometry">
            <mxPoint x="230" y="232" as="sourcePoint" />
            <mxPoint x="280" y="182" as="targetPoint" />
          </mxGeometry>
        </mxCell>
        <mxCell id="HFiZ4JCNKRLf1A1lZL1j-16" value="&lt;font style=&quot;font-size: 12px;&quot;&gt;&amp;nbsp;(1) UAEPASS Authentication&lt;/font&gt;" style="edgeLabel;html=1;align=center;verticalAlign=middle;resizable=0;points=[];" parent="HFiZ4JCNKRLf1A1lZL1j-15" vertex="1" connectable="0">
          <mxGeometry x="-0.1362" y="1" relative="1" as="geometry">
            <mxPoint as="offset" />
          </mxGeometry>
        </mxCell>
        <mxCell id="HFiZ4JCNKRLf1A1lZL1j-17" value="" style="endArrow=classic;html=1;rounded=0;entryX=0.456;entryY=1.002;entryDx=0;entryDy=0;entryPerimeter=0;" parent="1" target="HFiZ4JCNKRLf1A1lZL1j-2" edge="1">
          <mxGeometry width="50" height="50" relative="1" as="geometry">
            <mxPoint x="480" y="389" as="sourcePoint" />
            <mxPoint x="530" y="339" as="targetPoint" />
            <Array as="points">
              <mxPoint x="480" y="442" />
              <mxPoint x="330" y="442" />
              <mxPoint x="125" y="440" />
            </Array>
          </mxGeometry>
        </mxCell>
        <mxCell id="HFiZ4JCNKRLf1A1lZL1j-18" value="UAEPASS Authentication" style="edgeLabel;html=1;align=center;verticalAlign=middle;resizable=0;points=[];" parent="HFiZ4JCNKRLf1A1lZL1j-17" vertex="1" connectable="0">
          <mxGeometry x="0.2391" y="-1" relative="1" as="geometry">
            <mxPoint as="offset" />
          </mxGeometry>
        </mxCell>
        <mxCell id="HFiZ4JCNKRLf1A1lZL1j-19" value="" style="image;html=1;image=img/lib/clip_art/telecommunication/iPhone_128x128.png" parent="1" vertex="1">
          <mxGeometry x="120" y="280" width="90" height="83" as="geometry" />
        </mxCell>
      </root>
    </mxGraphModel>
  </diagram>
</mxfile>
